<?xml version="1.0" encoding="UTF-8"?>
<svg id="Layer_1" data-name="Layer 1" xmlns="http://www.w3.org/2000/svg" viewBox="0 0 1024 1024">
  <path class="cls-1" d="M884.65,663.74V360.95c28.47-4.45,50.34-29.06,50.34-58.76,0-32.83-26.71-59.54-59.54-59.54-18.7,0-35.39,8.68-46.31,22.2L567.42,113.98c2.58-6.66,4.05-13.87,4.05-21.43,0-32.84-26.71-59.55-59.54-59.55s-59.55,26.71-59.55,59.55c0,7.53,1.46,14.72,4.03,21.35L194.29,264.88c-10.92-13.54-27.63-22.23-46.34-22.23-32.83,0-59.54,26.71-59.54,59.54,0,29.7,21.87,54.31,50.34,58.76v302.79c-28.47,4.45-50.34,29.06-50.34,58.76,0,32.83,26.71,59.54,59.54,59.54,18.72,0,35.42-8.7,46.35-22.24l262.08,150.53c-2.54,6.62-3.99,13.77-3.99,21.27,0,32.83,26.71,59.54,59.55,59.54s59.54-26.71,59.54-59.54c0-7.5-1.45-14.65-3.99-21.26l261.66-150.48c10.93,13.52,27.62,22.2,46.32,22.2,32.83,0,59.54-26.71,59.54-59.54,0-29.69-21.87-54.31-50.34-58.76Zm-9.2-402.69c22.68,0,41.14,18.45,41.14,41.14s-18.45,41.14-41.14,41.14-41.14-18.46-41.14-41.14,18.46-41.14,41.14-41.14ZM511.93,51.41c22.68,0,41.14,18.46,41.14,41.14s-18.45,41.14-41.14,41.14-41.14-18.46-41.14-41.14,18.46-41.14,41.14-41.14Zm-46.34,78.45c10.92,13.54,27.63,22.24,46.34,22.24s35.37-8.67,46.29-22.18l261.72,150.87c-2.58,6.65-4.05,13.85-4.05,21.41s1.48,14.81,4.07,21.48l-261.76,151.15c-10.92-13.5-27.6-22.16-46.28-22.16s-35.36,8.66-46.29,22.17L203.45,323.59c2.58-6.65,4.04-13.85,4.04-21.41s-1.46-14.71-4.03-21.35L465.59,129.86Zm46.34,423.49c-22.68,0-41.14-18.45-41.14-41.14s18.46-41.14,41.14-41.14,41.14,18.46,41.14,41.14-18.45,41.14-41.14,41.14ZM106.81,302.19c0-22.68,18.45-41.14,41.14-41.14s41.14,18.45,41.14,41.14-18.46,41.14-41.14,41.14-41.14-18.46-41.14-41.14Zm41.14,461.44c-22.68,0-41.14-18.45-41.14-41.14s18.45-41.14,41.14-41.14,41.14,18.45,41.14,41.14-18.46,41.14-41.14,41.14Zm55.52-19.79c2.56-6.64,4.02-13.81,4.02-21.34,0-29.69-21.87-54.31-50.34-58.76V360.95c14.91-2.33,28.02-10.16,37.11-21.41l262.18,151.23c-2.58,6.66-4.06,13.87-4.06,21.44,0,29.7,21.87,54.31,50.34,58.76v301.87c-14.96,2.34-28.1,10.21-37.19,21.52l-262.06-150.52Zm308.46,228.88c-22.68,0-41.14-18.45-41.14-41.14s18.46-41.14,41.14-41.14,41.14,18.45,41.14,41.14-18.45,41.14-41.14,41.14Zm46.39-78.37c-9.09-11.3-22.22-19.18-37.18-21.52v-301.87c28.47-4.45,50.34-29.06,50.34-58.76,0-7.56-1.47-14.78-4.06-21.44l261.77-151.16c9.09,11.21,22.17,19.01,37.06,21.34v302.79c-28.47,4.45-50.35,29.06-50.35,58.76,0,7.54,1.47,14.74,4.04,21.39l-261.62,150.46Zm317.13-130.72c-22.68,0-41.14-18.45-41.14-41.14s18.46-41.14,41.14-41.14,41.14,18.45,41.14,41.14-18.45,41.14-41.14,41.14Z"/>
</svg>